<svg width="468" height="114" viewBox="0 0 486 114" fill="none" xmlns="http://www.w3.org/2000/svg">
  <g clip-path="url(#clip0_14263_2586)">
    <path fill-rule="evenodd" clip-rule="evenodd"
      d="M14.1781 9.47421C13.8411 9.3746 13.4788 9.40858 13.1663 9.56911C12.8538 9.72964 12.6151 10.0044 12.4998 10.3363C12.4516 10.5007 12.4372 10.6732 12.4576 10.8433C12.478 11.0134 12.5327 11.1777 12.6185 11.326C12.7042 11.4744 12.8192 11.6038 12.9564 11.7063C13.0937 11.8089 13.2503 11.8826 13.4169 11.9228C13.7596 12.0125 14.1236 11.9673 14.4341 11.7968C14.7446 11.6262 14.9779 11.3431 15.086 11.0057C15.1327 10.8431 15.1458 10.6727 15.1245 10.5048C15.1032 10.3369 15.048 10.1752 14.9622 10.0293C14.8764 9.88348 14.7618 9.75661 14.6254 9.65645C14.4891 9.55629 14.3337 9.48493 14.1689 9.4467L14.1781 9.47421ZM22.175 27.1098C11.922 33.6119 -1.97179 28.4945 2.44856 13.1334C5.11727 3.98088 16.4066 1.6148 23.0188 5.49407C34.6474 12.2255 26.9255 26.2018 22.5144 24.5327C17.3695 22.451 19.4513 16.0956 19.4513 11.932C22.5052 11.0791 25.3848 11.0149 26.8797 12.1062C28.0902 13.2159 24 15.6645 21.5606 16.1873C21.4505 16.6091 21.3405 16.9943 21.2304 17.4162C24.8988 16.013 25.0822 17.4162 20.8269 18.7643C20.6985 19.2412 20.5701 19.6814 20.4601 20.1949C24.3394 18.7184 25.7425 17.2969 24.3944 16.3157C27.3566 14.7199 28.6497 12.4547 26.843 11.3267C24.5112 10.2111 21.8497 9.99555 19.3688 10.7214C19.2724 9.91488 18.975 9.14542 18.5039 8.48365C18.0328 7.82189 17.4031 7.28901 16.6725 6.93389C16.0335 6.76289 15.3615 6.75735 14.7197 6.91779C14.0779 7.07823 13.4876 7.39937 13.0042 7.85098L9.4184 6.10851L10.5464 9.83188C9.28586 11.0399 8.34113 12.5388 7.79516 14.1972C7.79516 14.3164 7.84101 14.3439 8.06111 14.3164C9.03322 12.7757 9.72104 11.235 11.5094 10.4922C11.6528 10.296 11.7241 10.0562 11.7111 9.81354C10.363 7.2457 11.7111 9.81354 10.3447 7.29155C12.7841 9.05236 10.3447 7.29155 12.7933 9.12572C14.7742 6.97057 17.5713 7.77761 17.6538 11.18C11.2984 13.2343 5.53913 19.0119 4.81463 23.7441C4.69541 24.5786 5.08059 25.5049 6.91476 25.3581C10.363 25.0371 13.9029 22.3226 16.4158 19.4613C16.1957 19.0944 15.9664 18.6817 15.7463 18.3241C11.0508 24.7437 5.53913 25.5415 5.75923 24.1751C6.85973 18.6726 12.3072 14.3164 17.7547 12.363C17.663 16.1322 16.324 23.6707 21.8174 25.2481C29.4567 27.2932 35.8671 7.7501 20.2033 3.23804C18.2067 2.58675 16.0976 2.35207 14.0066 2.5485C11.9156 2.74494 9.88719 3.36832 8.04676 4.38008C6.20634 5.39184 4.59308 6.77046 3.30679 8.43066C2.0205 10.0909 1.08853 11.9973 0.568533 14.0321C-1.67832 24.6611 2.93461 30.2829 10.8766 31.8786C15.4545 32.6707 20.1648 31.7989 24.1559 29.4208C23.442 28.6981 22.7801 27.9258 22.175 27.1098Z"
      fill="#E68135" />
    <path fill-rule="evenodd" clip-rule="evenodd"
      d="M38.4076 4.35691V2.52274C39.6421 2.44443 40.8686 2.26965 42.0759 2V9.88693C42.2734 9.316 42.6297 8.81331 43.103 8.43793C43.4487 8.06658 43.9186 7.8349 44.4236 7.7868C45.8176 7.71344 46.7347 8.50213 47.1749 10.1254C47.6537 12.1072 47.8939 14.1392 47.8902 16.1781C48.0125 22.8606 46.9059 26.2049 44.5704 26.211C44.0191 26.1181 43.5081 25.8626 43.103 25.4774C42.6743 25.136 42.3188 24.7119 42.0576 24.2301V30.9157H43.103V32.649H38.7469V30.9157H39.829V24.2301C39.5601 24.728 39.2098 25.1775 38.7927 25.5599C38.4224 25.9214 37.941 26.1476 37.4263 26.2019C35.9865 26.2477 35.0694 25.3581 34.675 23.4965C34.2354 21.2557 34.0326 18.9749 34.0697 16.6917C34.1431 10.7215 35.2803 7.76846 37.4721 7.77763C37.9888 7.81017 38.4782 8.02083 38.8569 8.37374C39.3282 8.77439 39.6671 9.30832 39.829 9.90527V4.40276L38.4076 4.35691ZM39.829 14.7291C39.829 11.7945 39.2788 10.3363 38.1783 10.3546C37.8298 10.3546 37.4996 10.6389 37.2062 11.18C36.808 11.978 36.6277 12.867 36.6834 13.757C36.6834 15.1693 36.6101 16.2148 36.6101 16.921C36.5879 18.602 36.6614 20.283 36.8302 21.9558C36.9861 23.1663 37.463 23.7899 38.2517 23.7899C39.3063 23.7899 39.829 22.6986 39.829 20.571V14.7016V14.7291ZM42.0667 20.5985C42.0667 22.8087 42.6261 23.9183 43.7083 23.9183C44.1485 23.9183 44.5062 23.469 44.7996 22.7261C45.0475 21.9902 45.1744 21.2191 45.1756 20.4426C45.2215 18.9661 45.249 17.8289 45.249 17.0127C45.249 16.3982 45.249 15.8847 45.249 15.4995C45.249 15.1143 45.249 14.6925 45.2032 14.2064C45.3172 13.1724 45.1393 12.1272 44.6896 11.1892C44.3686 10.6665 44.0109 10.3822 43.6349 10.3822C42.5895 10.3822 42.0667 11.501 42.0667 13.7112V20.626V20.5985ZM49.0641 16.9943C49.0252 14.8142 49.4406 12.6498 50.2838 10.6389C51.0908 8.74057 52.3197 7.77763 53.9521 7.77763C55.5846 7.77763 56.7859 8.69472 57.6205 10.5289C58.4907 12.5834 58.9097 14.8007 58.8494 17.031C58.9046 19.2538 58.4791 21.4624 57.6021 23.5056C56.7645 25.3398 55.5418 26.2569 53.9338 26.2569C52.2922 26.2569 51.0633 25.2481 50.2655 23.3772C49.43 21.3737 49.0149 19.2199 49.0457 17.0494L49.0641 16.9943ZM51.907 16.9943V19.7456C51.9789 20.8985 52.1508 22.0431 52.4206 23.1663C52.4872 23.5126 52.6735 23.8245 52.9467 24.0474C53.2199 24.2704 53.5628 24.3902 53.9155 24.386C54.2872 24.3884 54.6485 24.2631 54.9389 24.0311C55.2294 23.7991 55.4314 23.4744 55.5112 23.1113C55.8357 22.0151 56.0085 20.8795 56.0248 19.7364C56.0248 19.1036 56.0248 18.1957 56.0248 16.9852C56.0248 15.7746 56.0248 14.7933 56.0248 14.2339C56.0054 13.091 55.8327 11.9559 55.5112 10.859C55.4426 10.4925 55.2427 10.1636 54.9489 9.934C54.6551 9.70437 54.2877 9.58981 53.9155 9.6118C53.5588 9.59947 53.2096 9.71593 52.9317 9.9399C52.6539 10.1639 52.4659 10.4804 52.4023 10.8315C52.133 11.948 51.9672 13.087 51.907 14.2339V16.9852V16.9943ZM63.8291 17.4345V24.0742H64.8746V25.7433H60.1241V24.0742H61.1879V9.88693H60.1241V8.227H64.9113V9.88693H63.8658V15.4811H67.1582V9.88693H66.076V8.227H70.9366V9.88693H69.8177V24.0742H70.9366V25.7433H66.076V24.0742H67.1582V17.4345H63.8291ZM79.1261 25.7433H74.3756V24.0742H75.4211V10.0612C75.1559 10.0011 74.8781 10.0328 74.6332 10.1511C74.3883 10.2693 74.1908 10.4672 74.073 10.7123C73.9461 11.0537 73.8719 11.4124 73.8529 11.7761C73.8529 12.4731 73.7612 12.9867 73.752 13.3077C73.7428 13.6286 73.752 13.8946 73.752 14.2247C73.752 14.5549 73.752 14.8208 73.697 15.0226H72.0646V8.227H81.4739V15.0043H79.8323C79.8323 14.2614 79.8323 13.6837 79.8323 13.3077C79.7681 12.6107 79.7222 12.1063 79.6855 11.7761C79.7104 11.407 79.631 11.0384 79.4563 10.7123C79.3394 10.4642 79.1406 10.264 78.8934 10.1454C78.6462 10.0268 78.3656 9.99706 78.099 10.0612V24.0742H79.1903V25.7433H79.1261ZM91.8369 24.2668V25.7983C91.3746 26.0334 90.8689 26.1707 90.3512 26.2019C89.8172 26.1805 89.3065 25.9768 88.9044 25.6247C88.5023 25.2726 88.2329 24.7934 88.1411 24.2668C87.8648 24.7598 87.4865 25.1882 87.0314 25.5232C86.6188 25.8929 86.1042 26.1295 85.5549 26.2019C85.1701 26.178 84.7951 26.0704 84.4561 25.8867C84.1172 25.7029 83.8224 25.4474 83.5923 25.138C82.9309 24.2417 82.6062 23.141 82.6752 22.0291C82.598 21.1436 82.7092 20.2518 83.0017 19.4124C83.2941 18.5731 83.7611 17.8052 84.3718 17.1594C85.4526 16.1201 86.7673 15.3558 88.2053 14.9309V11.2626C88.2053 10.2996 87.8017 9.82273 87.013 9.78605C86.7191 9.75846 86.4253 9.84007 86.1877 10.0153C86.0078 10.1678 85.8876 10.3789 85.8483 10.6114C85.8061 10.8572 85.8061 11.1085 85.8483 11.3543C85.8704 11.4626 85.898 11.5697 85.9309 11.6752C85.9756 11.7798 86.0005 11.8917 86.0042 12.0054C86.0545 12.309 86.0545 12.6189 86.0042 12.9225C85.9588 13.3846 85.7696 13.8208 85.4632 14.1697C85.3447 14.2938 85.2024 14.3926 85.0448 14.4604C84.8873 14.5282 84.7176 14.5634 84.5461 14.5641C84.3555 14.5308 84.1746 14.456 84.0162 14.3451C83.8577 14.2341 83.7255 14.0897 83.629 13.9221C83.3214 13.3689 83.1842 12.7372 83.2347 12.1063C83.2514 11.3473 83.4593 10.6048 83.8392 9.94754C84.2192 9.29028 84.7588 8.73951 85.4081 8.34623C85.9587 8.00188 86.593 7.81476 87.2423 7.80515C88.1407 7.85532 88.9893 8.23393 89.6267 8.86896C90.4338 9.59346 90.8281 10.9599 90.8281 12.9683V21.9099C90.8178 22.0656 90.8178 22.2219 90.8281 22.3776C90.8393 22.5853 90.8393 22.7935 90.8281 23.0012C90.7969 23.3154 90.8508 23.6321 90.984 23.9183C91.0805 24.0391 91.2059 24.1335 91.3485 24.1928C91.4912 24.2521 91.6466 24.2744 91.8002 24.2576L91.8369 24.2668ZM88.1686 17.0127C86.4995 17.4987 85.5274 18.8468 85.2431 21.0478C85.078 22.5886 85.4173 23.469 86.3069 23.6249C86.5564 23.6128 86.7992 23.5406 87.0148 23.4145C87.2304 23.2883 87.4122 23.1119 87.545 22.9004C88.0278 22.1937 88.2484 21.3405 88.1686 20.4884V17.0127ZM96.8075 17.4345V24.0742H97.853V25.7433H93.0566V24.0742H94.1021V9.88693H93.0566V8.227H97.853V9.88693H96.8075V15.4811H100.091V9.88693H99.0452V8.227H103.887V9.88693H102.714V24.0742H103.832V25.7433H99.0452V24.0742H100.118V17.4345H96.8075ZM105.061 25.7433V24.0834H106.107V9.88693H105.061V8.227H109.775V9.88693H108.73V15.8205C108.972 15.9049 109.237 15.8995 109.476 15.8053C109.715 15.7111 109.912 15.5342 110.032 15.3069C110.249 14.9446 110.378 14.5361 110.408 14.1147C110.465 13.7351 110.495 13.3521 110.5 12.9683C110.5 12.5281 110.5 12.0512 110.5 11.4551C110.6 8.92399 111.417 7.70427 113.04 7.7868C113.371 7.79358 113.696 7.88054 113.987 8.04024C114.278 8.19995 114.525 8.42765 114.709 8.70389C115.238 9.36659 115.535 10.1852 115.553 11.0333C115.621 11.652 115.496 12.2767 115.195 12.8216C115.099 12.9809 114.965 13.1138 114.805 13.2082C114.645 13.3027 114.464 13.3558 114.278 13.3627C114.103 13.3581 113.932 13.3105 113.78 13.2241C113.628 13.1377 113.5 13.0152 113.407 12.8675C113.116 12.4642 112.985 11.9675 113.04 11.4735C113.073 11.1621 113.138 10.8548 113.232 10.5564L113.388 10.2079C113.411 10.1574 113.423 10.1027 113.423 10.0474C113.423 9.99212 113.411 9.93744 113.388 9.88693C113.37 9.81675 113.331 9.75344 113.278 9.70462C113.224 9.6558 113.157 9.62356 113.086 9.6118C113.013 9.58844 112.935 9.58731 112.861 9.60854C112.788 9.62977 112.722 9.67241 112.673 9.73102C112.398 9.88693 112.279 10.318 112.343 11.0333C112.428 12.2434 112.37 13.4594 112.169 14.6558C112.104 15.0483 111.955 15.4221 111.731 15.7514C111.508 16.0808 111.216 16.3578 110.876 16.5633C113.012 17.0494 114.012 18.6726 113.829 21.488C113.774 21.8641 113.746 22.1942 113.719 22.4051C113.686 22.6578 113.686 22.9137 113.719 23.1663C113.75 23.4093 113.871 23.6317 114.058 23.7899C114.354 23.9661 114.694 24.0551 115.039 24.0467V25.7158C114.538 26.0101 113.969 26.1681 113.388 26.1744C113.032 26.1419 112.69 26.0165 112.397 25.8105C112.104 25.6045 111.87 25.3251 111.719 25.0005C111.238 23.8404 111.028 22.5857 111.105 21.3321C111.153 20.5219 111.063 19.7094 110.839 18.9294C110.741 18.4677 110.47 18.0615 110.08 17.795C109.691 17.5286 109.214 17.4225 108.748 17.4987V24.0651H109.793V25.725L105.061 25.7433ZM125.842 24.2668V25.7983C125.381 26.0364 124.875 26.174 124.357 26.2019C123.824 26.1831 123.314 25.9799 122.914 25.627C122.514 25.2741 122.25 24.7933 122.165 24.2668C121.888 24.7592 121.51 25.1873 121.055 25.5232C120.648 25.8896 120.14 26.1259 119.597 26.2019C119.21 26.1812 118.833 26.075 118.492 25.8911C118.151 25.7071 117.855 25.45 117.625 25.138C116.956 24.2435 116.616 23.1454 116.662 22.0291C116.662 19.8465 117.194 18.2324 118.331 17.1594C119.413 16.1162 120.732 15.3514 122.174 14.9309V11.2626C122.174 10.2996 121.743 9.82273 120.973 9.78605C120.676 9.76041 120.38 9.84174 120.138 10.0153C119.961 10.1702 119.842 10.3802 119.799 10.6114C119.769 10.8598 119.784 11.1115 119.845 11.3543C119.877 11.4594 119.901 11.5666 119.918 11.6752C119.967 11.7785 119.992 11.8913 119.991 12.0054C120.062 12.307 120.062 12.6208 119.991 12.9225C119.958 13.3858 119.77 13.8246 119.459 14.1697C119.341 14.3121 119.189 14.4221 119.016 14.4894C118.844 14.5566 118.657 14.5789 118.474 14.5542C118.29 14.5294 118.116 14.4584 117.968 14.3478C117.819 14.2373 117.702 14.0908 117.625 13.9221C117.308 13.3824 117.164 12.7581 117.213 12.1338C117.239 11.3633 117.453 10.611 117.836 9.94195C118.217 9.29703 118.753 8.75784 119.395 8.37374C119.959 8.02127 120.61 7.83382 121.275 7.83266C122.174 7.89131 123.023 8.26849 123.669 8.89648C124.448 9.62097 124.852 10.9874 124.852 12.9958V21.9374C124.841 22.0931 124.841 22.2494 124.852 22.4051C124.852 22.5427 124.852 22.772 124.852 23.0288C124.852 23.524 124.852 23.8541 124.999 23.9458C125.093 24.0638 125.216 24.1565 125.355 24.2157C125.494 24.2749 125.646 24.2988 125.797 24.2852L125.842 24.2668ZM122.174 17.0127C120.505 17.4987 119.515 18.8468 119.249 21.0478C119.065 22.5886 119.432 23.469 120.294 23.6249C120.547 23.6105 120.793 23.5375 121.012 23.4118C121.232 23.286 121.419 23.111 121.56 22.9004C122.024 22.186 122.24 21.3381 122.174 20.4884V17.0127ZM127.475 23.7808C127.434 23.104 127.603 22.431 127.961 21.8549C128.055 21.6196 128.212 21.4144 128.414 21.261C128.616 21.1076 128.855 21.0118 129.107 20.9837C129.557 20.9837 129.96 21.2038 130.373 21.7815C130.743 22.3217 130.941 22.961 130.941 23.6157C130.941 24.2703 130.743 24.9097 130.373 25.4499C130.259 25.6786 130.088 25.8735 129.875 26.0151C129.663 26.1568 129.417 26.2401 129.162 26.2569C128.768 26.2569 128.41 26.0184 128.034 25.4682C127.672 24.9827 127.473 24.3953 127.466 23.7899L127.475 23.7808ZM136.205 10.1896C136.438 9.59024 136.794 9.04657 137.251 8.59384C137.617 8.15731 138.128 7.8675 138.691 7.77763C139.294 7.77299 139.882 7.96272 140.369 8.31871C141.199 9.03909 141.783 10.0011 142.038 11.07C142.578 13.0337 142.807 15.0698 142.717 17.1044C142.717 20.4793 142.313 22.8637 141.543 24.1934C140.773 25.5232 139.846 26.2385 138.737 26.2385C138.163 26.1774 137.619 25.9519 137.17 25.5892C136.721 25.2264 136.386 24.7418 136.205 24.1934V30.9524H137.251V32.649H132.5V30.9157H133.564V10.1896H132.537V8.43793C133.188 8.3559 133.832 8.22406 134.463 8.04359L135.068 7.89685C135.215 7.84137 135.371 7.8164 135.527 7.82349C135.756 7.75012 135.985 7.67675 136.205 7.62173V10.1896ZM139.782 16.8659C139.782 16.3432 139.782 15.8663 139.782 15.4261C139.782 14.9859 139.782 14.4265 139.782 13.6837C139.874 12.7474 139.736 11.8028 139.379 10.9324C139.039 10.318 138.608 10.0153 138.196 10.0979C137.783 10.1804 137.453 10.373 137.086 10.9324C136.646 11.7813 136.428 12.7278 136.453 13.6837C136.389 15.0593 136.352 16.1139 136.352 16.8109C136.352 17.3337 136.352 17.8289 136.352 18.2691C136.352 18.7093 136.352 19.3054 136.352 19.984C136.326 21.0042 136.51 22.0188 136.893 22.9646C136.997 23.2066 137.161 23.4179 137.37 23.5785C137.579 23.739 137.825 23.8434 138.085 23.8816C138.498 23.8816 138.883 23.5423 139.278 22.8912C139.646 21.9592 139.8 20.9561 139.727 19.9565C139.727 19.2779 139.727 18.6818 139.727 18.2416C139.727 17.8014 139.727 17.3245 139.727 16.7834L139.782 16.8659ZM150.154 20.2958L152.144 9.98781H151.053V8.227H154.987V9.98781H154.199L151.062 25.1197C150.943 25.7433 150.723 26.6512 150.42 27.871C150.21 29.2489 149.662 30.5534 148.825 31.6677C148.573 31.9616 148.263 32.1993 147.914 32.3652C147.565 32.5311 147.184 32.6215 146.798 32.6306C146.441 32.6 146.096 32.4882 145.79 32.3038C145.483 32.1194 145.222 31.8673 145.028 31.5668C144.46 30.7669 144.187 29.7942 144.257 28.8156C144.249 28.1675 144.427 27.5308 144.771 26.9814C144.872 26.8232 145.006 26.6893 145.165 26.5894C145.323 26.4894 145.502 26.426 145.688 26.4036C145.883 26.4165 146.072 26.4756 146.239 26.5761C146.407 26.6766 146.548 26.8155 146.651 26.9814C146.947 27.4291 147.094 27.9584 147.073 28.4946C147.122 29.0455 147.004 29.5984 146.734 30.0811C146.734 30.1362 146.651 30.1637 146.605 30.2279C146.559 30.2921 146.605 30.3196 146.523 30.3746C146.467 30.5192 146.467 30.6794 146.523 30.824C146.611 30.9389 146.738 31.0173 146.88 31.0441C147.091 31.0441 147.33 30.9249 147.632 30.6314C147.956 30.2831 148.198 29.8662 148.339 29.4117C148.412 29.0815 148.531 28.4946 148.659 27.5775C148.751 27.1465 148.843 26.6604 148.935 26.2202C149.026 25.78 149.072 25.3857 149.109 25.138L144.899 9.98781H143.863V8.227H148.724V9.98781H147.807L150.173 20.2958H150.154Z"
      fill="#6D6E70" />
    <path
      d="M48.9268 35.9505V30.9615H53.1912V35.9505H52.4942V31.365L52.6685 31.5484H49.4495L49.6237 31.365V35.9505H48.9268Z"
      fill="#5D5D5D" />
    <path
      d="M55.4563 35.3085H58.3543V35.9505H54.7501V30.9615H58.2534V31.576H55.4563V35.3085ZM55.3921 33.1075H57.9416V33.7036H55.3921V33.1075Z"
      fill="#5D5D5D" />
    <path
      d="M60.4728 35.9505V31.3651L60.6562 31.5485H58.822V30.934H62.9122V31.5485H61.078L61.2431 31.3651V35.9505H60.4728Z"
      fill="#5D5D5D" />
    <path
      d="M64.4528 35.3085H67.3416V35.9505H63.7375V30.9615H67.2408V31.576H64.4895L64.4528 35.3085ZM64.3886 33.1075H66.9473V33.7036H64.3886V33.1075Z"
      fill="#5D5D5D" />
    <path
      d="M68.4604 35.9504V30.9615H70.3955C70.7761 30.9524 71.1544 31.0243 71.5052 31.1724C71.7969 31.2926 72.0438 31.5011 72.2113 31.7685C72.3723 32.0474 72.457 32.3637 72.457 32.6856C72.457 33.0076 72.3723 33.3239 72.2113 33.6027C72.0411 33.8678 71.7951 34.0755 71.5052 34.1988C71.1544 34.3469 70.7761 34.4188 70.3955 34.4097H68.8456L69.1666 34.0704V35.9046L68.4604 35.9504ZM69.1666 34.1805L68.8456 33.8228H70.368C70.7358 33.8499 71.1018 33.7495 71.4043 33.5385C71.5204 33.4358 71.612 33.3083 71.6723 33.1654C71.7326 33.0226 71.7601 32.868 71.7528 32.7131C71.7615 32.5581 71.7346 32.4031 71.6742 32.26C71.6138 32.117 71.5215 31.9896 71.4043 31.8878C71.103 31.6735 70.7369 31.5698 70.368 31.5943H68.8456L69.1666 31.2458V34.1805Z"
      fill="#5D5D5D" />
    <path
      d="M73.4496 35.9505V30.9615H77.1913V31.5668H74.1557V32.9883H75.6964C76.1746 32.9524 76.6505 33.0819 77.0445 33.3551C77.2009 33.4845 77.324 33.6494 77.4038 33.836C77.4836 34.0227 77.5176 34.2257 77.5031 34.4281C77.5179 34.6368 77.4833 34.8461 77.402 35.0389C77.3208 35.2317 77.1951 35.4026 77.0354 35.5378C76.6154 35.8242 76.1121 35.9629 75.6047 35.9321L73.4496 35.9505ZM74.1557 35.3819H75.5497C75.8717 35.4016 76.1919 35.3215 76.4668 35.1526C76.5715 35.0726 76.6548 34.9679 76.7092 34.8479C76.7636 34.7279 76.7875 34.5963 76.7786 34.4648C76.7786 33.8595 76.3659 33.5477 75.5314 33.5477H74.1557V35.3819Z"
      fill="#5D5D5D" />
    <path
      d="M79.9883 35.0334L77.8148 30.9249H78.5668L80.401 34.4648L79.9883 35.0334ZM78.4568 35.2627C78.6712 35.3523 78.9069 35.3777 79.1354 35.3361C79.2565 35.2995 79.3687 35.2382 79.465 35.1561C79.5613 35.0741 79.6395 34.973 79.6948 34.8592L79.9425 34.4832L80.0067 34.4006L81.8408 30.9249H82.5378L80.3276 35.0334C80.1901 35.309 79.9927 35.5503 79.7499 35.7396C79.5427 35.8886 79.2983 35.9775 79.0437 35.9964C78.7786 36.0147 78.5132 35.9642 78.2734 35.8496L78.4568 35.2627Z"
      fill="#5D5D5D" />
    <path
      d="M83.2623 35.9505V30.9616H85.2065C85.587 30.9544 85.9648 31.0262 86.3162 31.1725C86.6064 31.2953 86.8526 31.5031 87.0223 31.7686C87.1833 32.0474 87.268 32.3637 87.268 32.6857C87.268 33.0076 87.1833 33.3239 87.0223 33.6028C86.8501 33.866 86.6046 34.0732 86.3162 34.1989C85.9648 34.3452 85.587 34.417 85.2065 34.4098H83.6566L83.9776 34.0705V35.9046L83.2623 35.9505ZM83.9776 34.1805L83.6566 33.8229H85.179C85.5459 33.8425 85.9085 33.7357 86.2061 33.5202C86.3222 33.4175 86.4138 33.29 86.4742 33.1471C86.5345 33.0043 86.562 32.8497 86.5546 32.6948C86.5633 32.5398 86.5364 32.3848 86.476 32.2418C86.4156 32.0987 86.3233 31.9714 86.2061 31.8695C85.9048 31.6552 85.5387 31.5515 85.1698 31.576H83.6566L83.9776 31.2275V34.1805Z"
      fill="#5D5D5D" />
    <path d="M88.2603 35.9505V30.9615H91.516V31.576H88.7647L88.9573 31.365V35.9505H88.2603Z"
      fill="#5D5D5D" />
    <path
      d="M96.505 35.9504C96.1444 35.9546 95.7863 35.8892 95.4504 35.7578C95.1357 35.636 94.8487 35.4519 94.6067 35.2168C94.3708 34.9911 94.1835 34.7196 94.0564 34.4189C93.9232 34.0992 93.8546 33.7564 93.8546 33.4101C93.8546 33.0638 93.9232 32.721 94.0564 32.4013C94.181 32.0966 94.3685 31.8216 94.6067 31.5943C94.8474 31.3642 95.131 31.1835 95.4412 31.0624C95.7803 30.9309 96.1414 30.8656 96.505 30.8698C96.8617 30.8679 97.2158 30.93 97.5505 31.0532C97.8619 31.1721 98.1458 31.353 98.385 31.5851C98.6234 31.8158 98.8109 32.0938 98.9353 32.4013C99.1908 33.0496 99.1908 33.7706 98.9353 34.4189C98.807 34.7241 98.6181 35.0001 98.3801 35.2303C98.1421 35.4604 97.8599 35.6399 97.5505 35.7578C97.2178 35.8894 96.8627 35.9548 96.505 35.9504ZM96.505 35.3176C96.7691 35.3213 97.0312 35.2714 97.2754 35.1709C97.5003 35.079 97.7057 34.9452 97.8807 34.7766C98.0542 34.6038 98.1914 34.398 98.2842 34.1713C98.3847 33.9303 98.4346 33.6712 98.4309 33.4101C98.4368 33.1488 98.3867 32.8893 98.2842 32.6489C98.1914 32.4222 98.0542 32.2164 97.8807 32.0436C97.7061 31.8723 97.5007 31.7354 97.2754 31.6401C97.0293 31.547 96.7681 31.5004 96.505 31.5026C96.2449 31.4996 95.9865 31.5463 95.7438 31.6401C95.5145 31.7329 95.3057 31.87 95.1294 32.0436C94.9552 32.2179 94.8153 32.4232 94.7167 32.6489C94.6197 32.891 94.5699 33.1493 94.57 33.4101C94.5708 33.6708 94.6206 33.929 94.7167 34.1713C94.8153 34.397 94.9552 34.6023 95.1294 34.7766C95.5015 35.1268 95.994 35.3206 96.505 35.3176Z"
      fill="#5D5D5D" />
    <path
      d="M100.99 35.9505H100.283V30.9615H100.99V35.9505ZM103.906 33.7311H100.88V33.1167H103.869L103.906 33.7311ZM103.842 30.9799H104.548V35.9505H103.842V30.9799Z"
      fill="#5D5D5D" />
    <path
      d="M105.795 35.9504H105.355L105.401 35.3176C105.477 35.3266 105.554 35.3266 105.63 35.3176C105.727 35.3211 105.823 35.3002 105.909 35.257C105.996 35.2137 106.07 35.1494 106.125 35.07C106.267 34.8409 106.361 34.5849 106.4 34.318C106.462 33.8954 106.502 33.4699 106.519 33.0432L106.593 30.9523H110.05V35.9504H109.362V31.365L109.527 31.5484H107.015L107.171 31.3558L107.106 33.0065C107.098 33.4389 107.068 33.8705 107.015 34.2996C106.972 34.6137 106.892 34.9215 106.776 35.2167C106.694 35.4356 106.554 35.6287 106.373 35.7761C106.203 35.8924 106.001 35.9532 105.795 35.9504Z"
      fill="#5D5D5D" />
    <path
      d="M110.967 35.9504L113.214 30.9798H113.92L116.158 35.9504H115.406L113.398 31.3649H113.719L111.719 35.9504H110.967ZM111.884 34.7031L112.077 34.1345H114.828L115.03 34.7031H111.884Z"
      fill="#5D5D5D" />
    <path
      d="M117.011 35.9505V30.9616H117.717V34.795L120.652 30.9616H121.303V35.9505H120.606V32.1079L117.662 35.9505H117.011ZM119.148 30.6314C118.821 30.6569 118.496 30.566 118.231 30.3746C118.124 30.2898 118.039 30.1805 117.983 30.056C117.927 29.9316 117.902 29.7955 117.91 29.6593H118.414C118.411 29.742 118.428 29.8242 118.463 29.8991C118.498 29.974 118.551 30.0396 118.616 30.0903C118.763 30.2015 118.945 30.2567 119.13 30.2462C119.313 30.2536 119.494 30.1987 119.643 30.0903C119.708 30.0396 119.761 29.974 119.796 29.8991C119.831 29.8242 119.848 29.742 119.845 29.6593H120.34C120.348 29.7955 120.322 29.9316 120.267 30.056C120.211 30.1805 120.126 30.2898 120.019 30.3746C119.764 30.5512 119.457 30.6354 119.148 30.6131V30.6314Z"
      fill="#5D5D5D" />
    <path
      d="M123.559 35.9505H122.889V30.9615H123.596L123.559 35.9505ZM126.475 33.7311H123.485V33.1167H126.475V33.7311ZM126.411 30.9799H127.117V35.9505H126.411V30.9799Z"
      fill="#5D5D5D" />
  </g>
  <defs>
    <clipPath id="clip0_14263_2586">
      <rect width="156" height="38" fill="white" />
    </clipPath>
  </defs>
</svg>
